<mxfile host="app.diagrams.net" agent="Mozilla/5.0 (Windows NT 10.0; Win64; x64) AppleWebKit/537.36 (KHTML, like Gecko) Chrome/132.0.0.0 Safari/537.36" version="26.0.11">
  <diagram name="Page-1" id="QHLyfcPbEnmjlkANt2fx">
    <mxGraphModel dx="896" dy="1561" grid="1" gridSize="10" guides="1" tooltips="1" connect="1" arrows="1" fold="1" page="1" pageScale="1" pageWidth="850" pageHeight="1100" math="0" shadow="0">
      <root>
        <mxCell id="0" />
        <mxCell id="1" parent="0" />
        <mxCell id="63-JlMIG5tJd9I71oSRA-2" value="" style="endArrow=none;html=1;rounded=0;" edge="1" parent="1">
          <mxGeometry width="50" height="50" relative="1" as="geometry">
            <mxPoint x="230" y="660" as="sourcePoint" />
            <mxPoint x="230" y="50" as="targetPoint" />
          </mxGeometry>
        </mxCell>
        <mxCell id="63-JlMIG5tJd9I71oSRA-1" value="Client" style="rounded=0;whiteSpace=wrap;html=1;" vertex="1" parent="1">
          <mxGeometry x="170" y="10" width="120" height="40" as="geometry" />
        </mxCell>
        <mxCell id="63-JlMIG5tJd9I71oSRA-3" value="" style="endArrow=none;html=1;rounded=0;" edge="1" parent="1">
          <mxGeometry width="50" height="50" relative="1" as="geometry">
            <mxPoint x="680" y="660" as="sourcePoint" />
            <mxPoint x="680" y="50" as="targetPoint" />
          </mxGeometry>
        </mxCell>
        <mxCell id="63-JlMIG5tJd9I71oSRA-4" value="Server" style="rounded=0;whiteSpace=wrap;html=1;" vertex="1" parent="1">
          <mxGeometry x="620" y="10" width="120" height="40" as="geometry" />
        </mxCell>
        <mxCell id="63-JlMIG5tJd9I71oSRA-5" value="www.crazyweb.com" style="text;html=1;align=center;verticalAlign=middle;whiteSpace=wrap;rounded=0;" vertex="1" parent="1">
          <mxGeometry x="650" y="-20" width="60" height="30" as="geometry" />
        </mxCell>
        <mxCell id="63-JlMIG5tJd9I71oSRA-7" value="" style="endArrow=classic;html=1;rounded=0;" edge="1" parent="1">
          <mxGeometry width="50" height="50" relative="1" as="geometry">
            <mxPoint x="230" y="70" as="sourcePoint" />
            <mxPoint x="680" y="120" as="targetPoint" />
          </mxGeometry>
        </mxCell>
        <mxCell id="63-JlMIG5tJd9I71oSRA-17" value="&lt;div style=&quot;line-height: 100%;&quot;&gt;&lt;span class=&quot;hljs-built_in&quot; style=&quot;text-wrap-mode: nowrap;&quot;&gt;&lt;font style=&quot;font-size: 6px; line-height: 100%;&quot;&gt;Hello Request&lt;/font&gt;&lt;/span&gt;&lt;/div&gt;&lt;font style=&quot;font-size: 6px; line-height: 100%;&quot;&gt;&lt;span class=&quot;hljs-built_in&quot; style=&quot;text-wrap-mode: nowrap;&quot;&gt;Client&lt;/span&gt;&lt;span style=&quot;text-wrap-mode: nowrap;&quot;&gt;&amp;nbsp;Random: ABC123&lt;/span&gt;&lt;/font&gt;&lt;div style=&quot;line-height: 100%;&quot;&gt;&lt;span style=&quot;text-wrap-mode: nowrap;&quot;&gt;&lt;span class=&quot;hljs-deletion&quot;&gt;&lt;font style=&quot;font-size: 6px; line-height: 100%;&quot;&gt;Supported Cipher Suite&lt;/font&gt;&lt;/span&gt;&lt;/span&gt;&lt;/div&gt;&lt;div style=&quot;line-height: 100%;&quot;&gt;&lt;span style=&quot;text-wrap-mode: nowrap;&quot;&gt;&lt;span class=&quot;hljs-deletion&quot;&gt;&lt;font style=&quot;font-size: 6px; line-height: 100%;&quot;&gt;&amp;nbsp; &amp;nbsp; - TLS_ECDHE_RSA_WITH_AES_256_GCM_SHA384&lt;/font&gt;&lt;/span&gt;&lt;/span&gt;&lt;/div&gt;&lt;div style=&quot;line-height: 100%;&quot;&gt;&lt;font style=&quot;font-size: 6px; line-height: 100%;&quot;&gt;&lt;span style=&quot;text-wrap-mode: nowrap;&quot;&gt;&lt;span class=&quot;hljs-deletion&quot;&gt;&amp;nbsp;&lt;/span&gt;&amp;nbsp;&lt;/span&gt;&lt;span style=&quot;text-wrap-mode: nowrap; color: light-dark(rgb(0, 0, 0), rgb(255, 255, 255));&quot;&gt;&amp;nbsp; - TLS_DHE_RSA_WITH_AES_256_CBC_SHA&lt;/span&gt;&lt;/font&gt;&lt;/div&gt;&lt;div style=&quot;line-height: 100%;&quot;&gt;&lt;span style=&quot;text-wrap-mode: nowrap;&quot;&gt;&lt;span class=&quot;hljs-deletion&quot;&gt;&lt;font style=&quot;font-size: 6px; line-height: 100%;&quot;&gt;&amp;nbsp; &amp;nbsp; - TLS_RSA_WITH_AES_256_GCM_SHA384&lt;/font&gt;&lt;/span&gt;&lt;/span&gt;&lt;/div&gt;" style="text;html=1;align=left;verticalAlign=middle;whiteSpace=wrap;rounded=0;labelBackgroundColor=none;" vertex="1" parent="1">
          <mxGeometry x="395" y="40" width="60" height="30" as="geometry" />
        </mxCell>
        <mxCell id="63-JlMIG5tJd9I71oSRA-19" value="" style="outlineConnect=0;dashed=0;verticalLabelPosition=bottom;verticalAlign=top;align=center;html=1;shape=mxgraph.aws3.certificate_manager_2;fillColor=#759C3E;gradientColor=none;" vertex="1" parent="1">
          <mxGeometry x="630" y="20" width="23.5" height="20" as="geometry" />
        </mxCell>
        <mxCell id="63-JlMIG5tJd9I71oSRA-20" value="" style="shape=image;html=1;verticalAlign=top;verticalLabelPosition=bottom;labelBackgroundColor=#ffffff;imageAspect=0;aspect=fixed;image=https://cdn1.iconfinder.com/data/icons/hawcons/32/700033-icon-75-document-file-key-128.png" vertex="1" parent="1">
          <mxGeometry x="710" y="20" width="20" height="20" as="geometry" />
        </mxCell>
        <mxCell id="63-JlMIG5tJd9I71oSRA-21" value="" style="sketch=0;pointerEvents=1;shadow=0;dashed=0;html=1;strokeColor=#006EAF;fillColor=#1ba1e2;labelPosition=center;verticalLabelPosition=bottom;verticalAlign=top;outlineConnect=0;align=center;shape=mxgraph.office.servers.certificate_authority;fontColor=#ffffff;" vertex="1" parent="1">
          <mxGeometry x="220" y="-230" width="40" height="50" as="geometry" />
        </mxCell>
        <mxCell id="63-JlMIG5tJd9I71oSRA-22" value="" style="endArrow=classic;html=1;rounded=0;" edge="1" parent="1">
          <mxGeometry width="50" height="50" relative="1" as="geometry">
            <mxPoint x="680" y="130" as="sourcePoint" />
            <mxPoint x="230" y="170" as="targetPoint" />
          </mxGeometry>
        </mxCell>
        <mxCell id="63-JlMIG5tJd9I71oSRA-23" value="&lt;div style=&quot;line-height: 100%;&quot;&gt;&lt;span class=&quot;hljs-built_in&quot; style=&quot;text-wrap-mode: nowrap;&quot;&gt;&lt;font style=&quot;font-size: 6px; line-height: 100%;&quot;&gt;Hello Response&lt;/font&gt;&lt;/span&gt;&lt;/div&gt;&lt;font style=&quot;font-size: 6px; line-height: 100%;&quot;&gt;&lt;span style=&quot;text-wrap-mode: nowrap;&quot;&gt;Server Random: ABC123&lt;/span&gt;&lt;/font&gt;&lt;div style=&quot;line-height: 100%;&quot;&gt;&lt;span style=&quot;text-wrap-mode: nowrap;&quot;&gt;&lt;span class=&quot;hljs-deletion&quot;&gt;&lt;font style=&quot;font-size: 6px; line-height: 100%;&quot;&gt;Use Cipher Suite :&amp;nbsp;&amp;nbsp;&lt;/font&gt;&lt;/span&gt;&lt;/span&gt;&lt;span style=&quot;font-size: 6px; text-wrap-mode: nowrap; background-color: transparent; color: light-dark(rgb(0, 0, 0), rgb(255, 255, 255));&quot;&gt;TLS_ECDHE_RSA_WITH_AES_256_GCM_SHA384&lt;/span&gt;&lt;/div&gt;&lt;div style=&quot;line-height: 100%;&quot;&gt;&lt;br&gt;&lt;/div&gt;" style="text;html=1;align=left;verticalAlign=middle;whiteSpace=wrap;rounded=0;labelBackgroundColor=none;" vertex="1" parent="1">
          <mxGeometry x="410" y="170" width="60" height="30" as="geometry" />
        </mxCell>
        <mxCell id="63-JlMIG5tJd9I71oSRA-24" value="Server" style="rounded=0;whiteSpace=wrap;html=1;" vertex="1" parent="1">
          <mxGeometry x="470" y="-220" width="120" height="40" as="geometry" />
        </mxCell>
        <mxCell id="63-JlMIG5tJd9I71oSRA-25" value="www.crazyweb.com" style="text;html=1;align=center;verticalAlign=middle;whiteSpace=wrap;rounded=0;" vertex="1" parent="1">
          <mxGeometry x="500" y="-340" width="60" height="30" as="geometry" />
        </mxCell>
        <mxCell id="63-JlMIG5tJd9I71oSRA-26" value="" style="outlineConnect=0;dashed=0;verticalLabelPosition=bottom;verticalAlign=top;align=center;html=1;shape=mxgraph.aws3.certificate_manager_2;fillColor=#759C3E;gradientColor=none;" vertex="1" parent="1">
          <mxGeometry x="280" y="-245" width="23.5" height="20" as="geometry" />
        </mxCell>
        <mxCell id="63-JlMIG5tJd9I71oSRA-27" value="" style="shape=image;html=1;verticalAlign=top;verticalLabelPosition=bottom;labelBackgroundColor=#ffffff;imageAspect=0;aspect=fixed;image=https://cdn1.iconfinder.com/data/icons/hawcons/32/700033-icon-75-document-file-key-128.png" vertex="1" parent="1">
          <mxGeometry x="550" y="-310" width="20" height="20" as="geometry" />
        </mxCell>
        <mxCell id="63-JlMIG5tJd9I71oSRA-28" value="" style="outlineConnect=0;dashed=0;verticalLabelPosition=bottom;verticalAlign=top;align=center;html=1;shape=mxgraph.aws3.certificate_manager_2;fillColor=#759C3E;gradientColor=none;" vertex="1" parent="1">
          <mxGeometry x="413" y="200" width="23.5" height="20" as="geometry" />
        </mxCell>
        <mxCell id="63-JlMIG5tJd9I71oSRA-29" value="&lt;font style=&quot;font-size: 8px;&quot;&gt;server.crt&lt;/font&gt;" style="text;html=1;align=center;verticalAlign=middle;whiteSpace=wrap;rounded=0;" vertex="1" parent="1">
          <mxGeometry x="445" y="203.75" width="25" height="12.5" as="geometry" />
        </mxCell>
      </root>
    </mxGraphModel>
  </diagram>
</mxfile>
